<svg width="40" height="37" viewBox="0 0 40 37" fill="none" xmlns="http://www.w3.org/2000/svg">
<path d="M23.3334 3.08325H10C9.11597 3.08325 8.26812 3.4081 7.643 3.98634C7.01788 4.56458 6.66669 5.34883 6.66669 6.16659V30.8333C6.66669 31.651 7.01788 32.4353 7.643 33.0135C8.26812 33.5917 9.11597 33.9166 10 33.9166H30C30.8841 33.9166 31.7319 33.5917 32.357 33.0135C32.9822 32.4353 33.3334 31.651 33.3334 30.8333V12.3333L23.3334 3.08325Z" stroke="white" stroke-width="4" stroke-linecap="round" stroke-linejoin="round"/>
<path d="M23.3333 3.08325V12.3333H33.3333" stroke="white" stroke-width="3" stroke-linecap="round" stroke-linejoin="round"/>
<path d="M26.6666 20.0417H13.3333" stroke="white" stroke-width="3" stroke-linecap="square" stroke-linejoin="round"/>
<path d="M26.6666 26.2083H13.3333" stroke="white" stroke-width="3" stroke-linecap="square" stroke-linejoin="round"/>
<path d="M16.6666 13.875H15H13.3333" stroke="white" stroke-width="3" stroke-linecap="square" stroke-linejoin="round"/>
</svg>
