<svg width="28" height="28" viewBox="0 0 28 28" fill="none" xmlns="http://www.w3.org/2000/svg">
<path d="M10.2193 0H17.7807C19.3487 0 20.5922 -1.11759e-07 21.593 0.081846C22.6183 0.165128 23.4841 0.340308 24.2767 0.742359C25.5599 1.39691 26.6029 2.44091 27.2562 3.72472C27.6597 4.51446 27.8349 5.38174 27.9182 6.40697C28 7.40779 28 8.65128 28 10.2193V17.7807C28 19.3487 28 20.5922 27.9182 21.593C27.8349 22.6183 27.6597 23.4841 27.2576 24.2767C26.6035 25.5597 25.56 26.6027 24.2767 27.2562C23.4841 27.6597 22.6183 27.8349 21.593 27.9182C20.5922 28 19.3487 28 17.7807 28H10.2193C8.65128 28 7.40779 28 6.40697 27.9182C5.38174 27.8349 4.5159 27.6597 3.72472 27.2576C2.44123 26.6037 1.39772 25.5602 0.743795 24.2767C0.340308 23.4841 0.165128 22.6183 0.081846 21.593C-1.11759e-07 20.5922 0 19.3487 0 17.7807V10.2193C0 8.65128 -1.11759e-07 7.40779 0.081846 6.40697C0.165128 5.38174 0.340308 4.5159 0.742359 3.72472C1.39666 2.44101 2.44069 1.39748 3.72472 0.743795C4.51446 0.340308 5.38174 0.165128 6.40697 0.081846C7.40779 -1.11759e-07 8.65128 0 10.2193 0ZM6.58215 2.22851C5.6919 2.30031 5.13908 2.43959 4.70113 2.66215C3.82327 3.10952 3.10952 3.82327 2.66215 4.70113C2.43959 5.13908 2.30174 5.6919 2.22851 6.58215C2.15528 7.48677 2.15385 8.64123 2.15385 10.2667V17.7333C2.15385 19.3602 2.15385 20.5147 2.22851 21.4178C2.30031 22.3081 2.43959 22.8609 2.66215 23.2989C3.10952 24.1767 3.82327 24.8905 4.70113 25.3378C5.13908 25.5604 5.6919 25.6983 6.58215 25.7715C7.14503 25.8174 7.8041 25.8347 8.61539 25.8433V2.15672C7.8041 2.1639 7.14503 2.18256 6.58215 2.22851ZM20.5046 8.93128C20.3027 8.72961 20.029 8.61633 19.7436 8.61633C19.4582 8.61633 19.1845 8.72961 18.9826 8.93128L14.6749 13.239C14.4732 13.4409 14.3599 13.7146 14.3599 14C14.3599 14.2854 14.4732 14.5591 14.6749 14.761L18.9826 19.0687C19.0812 19.1745 19.2001 19.2594 19.3322 19.3183C19.4643 19.3771 19.6069 19.4088 19.7515 19.4113C19.8961 19.4139 20.0397 19.3873 20.1738 19.3331C20.3079 19.2789 20.4297 19.1983 20.532 19.0961C20.6342 18.9938 20.7148 18.872 20.769 18.7379C20.8232 18.6038 20.8498 18.4602 20.8472 18.3156C20.8447 18.171 20.813 18.0284 20.7541 17.8963C20.6953 17.7642 20.6104 17.6453 20.5046 17.5467L16.958 14L20.5046 10.4533C20.7063 10.2514 20.8196 9.97769 20.8196 9.69231C20.8196 9.40692 20.7063 9.13321 20.5046 8.93128Z" fill="white"/>
</svg>
